<svg id="visual" viewBox="0 0 1920 1080" width="1920" height="1080" xmlns="http://www.w3.org/2000/svg" xmlns:xlink="http://www.w3.org/1999/xlink" version="1.1"><rect x="0" y="0" width="1920" height="1080" fill="#0d1214"/><path d="M0 918L80 855.5C160 793 320 668 480 614.3C640 560.7 800 578.3 960 613.3C1120 648.3 1280 700.7 1440 675.3C1600 650 1760 547 1840 495.5L1920 444L1920 1081L1840 1081C1760 1081 1600 1081 1440 1081C1280 1081 1120 1081 960 1081C800 1081 640 1081 480 1081C320 1081 160 1081 80 1081L0 1081Z" fill="#090c9b" stroke-linecap="round" stroke-linejoin="miter"/></svg>